<svg width="119" height="123" viewBox="0 0 119 123" fill="none" xmlns="http://www.w3.org/2000/svg">
<g filter="url(#filter0_d_1_1316)">
<ellipse cx="55.8283" cy="57.7662" rx="39.137" ry="40.868" fill="white"/>
<path d="M55.4174 37.8268C55.312 37.8236 55.2069 37.84 55.1073 37.8754L36.9428 44.3477C36.7555 44.4144 36.5961 44.5448 36.4913 44.7172C36.3864 44.8896 36.3424 45.0935 36.3666 45.2951L39.2361 69.3917C39.2528 69.5323 39.3022 69.6668 39.38 69.7839C39.4579 69.901 39.5619 69.9974 39.6835 70.065L54.9971 78.5865C55.1248 78.6576 55.268 78.6947 55.4134 78.6944C55.5588 78.6941 55.7018 78.6564 55.8293 78.5848L71.2225 69.947C71.3433 69.8792 71.4465 69.7829 71.5238 69.6661C71.601 69.5493 71.6499 69.4154 71.6666 69.2755L74.5361 45.1806C74.5604 44.9781 74.5158 44.7732 74.41 44.6004C74.3041 44.4275 74.1433 44.2972 73.9547 44.2314L55.6717 37.8737C55.5897 37.8452 55.504 37.8294 55.4174 37.8268ZM55.3971 39.6557L72.7276 45.682L69.9971 68.6091L55.4107 76.7941L40.9056 68.7219L38.1734 45.7914L55.3971 39.6557ZM55.4818 41.3805C55.3114 41.3745 55.1431 41.42 54.9978 41.5113C54.8525 41.6027 54.7367 41.7358 54.6649 41.8941L43.3835 66.7698C43.322 66.9052 43.2948 67.0542 43.3045 67.2032C43.3141 67.3521 43.3602 67.4962 43.4386 67.6221C43.517 67.748 43.625 67.8516 43.7529 67.9235C43.8807 67.9953 44.0242 68.033 44.17 68.0331H48.0208C48.1861 68.033 48.3479 67.9846 48.4872 67.8936C48.6265 67.8026 48.7375 67.6728 48.8073 67.5194L50.9886 62.7095H59.914L62.0954 67.5194C62.1651 67.6728 62.2762 67.8026 62.4155 67.8936C62.5548 67.9846 62.7166 68.033 62.8818 68.0331H66.7327C66.8785 68.033 67.022 67.9953 67.1498 67.9235C67.2776 67.8516 67.3857 67.748 67.4641 67.6221C67.5425 67.4962 67.5886 67.3521 67.5982 67.2032C67.6078 67.0542 67.5806 66.9052 67.5191 66.7698L56.2378 41.8941C56.1703 41.7454 56.064 41.6188 55.9306 41.5281C55.7972 41.4375 55.6419 41.3864 55.4818 41.3805ZM55.4513 44.3772L65.3734 66.2562H63.4361L61.2547 61.4463C61.185 61.2929 61.074 61.1631 60.9346 61.0721C60.7953 60.9811 60.6335 60.9327 60.4683 60.9326H50.4344C50.2691 60.9327 50.1073 60.9811 49.968 61.0721C49.8287 61.1631 49.7177 61.2929 49.6479 61.4463L47.4649 66.2562H45.5293L55.4513 44.3772ZM55.4852 49.8205C55.3136 49.8137 55.1439 49.8593 54.9976 49.9513C54.8512 50.0433 54.7349 50.1778 54.6632 50.3376L51.2564 57.8995C51.1956 58.0349 51.169 58.1837 51.1791 58.3323C51.1892 58.4809 51.2356 58.6245 51.3141 58.75C51.3926 58.8754 51.5006 58.9787 51.6282 59.0502C51.7559 59.1217 51.899 59.1592 52.0445 59.1593H58.8581C59.0036 59.1592 59.1468 59.1217 59.2744 59.0502C59.4021 58.9787 59.5101 58.8754 59.5886 58.75C59.6671 58.6245 59.7135 58.4809 59.7236 58.3323C59.7336 58.1837 59.707 58.0349 59.6463 57.8995L56.2395 50.3376C56.1726 50.1885 56.0668 50.0613 55.9336 49.97C55.8005 49.8788 55.6453 49.827 55.4852 49.8205ZM55.4513 52.8293L57.5022 57.3824H53.4005L55.4513 52.8293Z" fill="black"/>
</g>
<defs>
<filter id="filter0_d_1_1316" x="0.691284" y="0.898193" width="118.274" height="121.736" filterUnits="userSpaceOnUse" color-interpolation-filters="sRGB">
<feFlood flood-opacity="0" result="BackgroundImageFix"/>
<feColorMatrix in="SourceAlpha" type="matrix" values="0 0 0 0 0 0 0 0 0 0 0 0 0 0 0 0 0 0 127 0" result="hardAlpha"/>
<feOffset dx="4" dy="4"/>
<feGaussianBlur stdDeviation="10"/>
<feComposite in2="hardAlpha" operator="out"/>
<feColorMatrix type="matrix" values="0 0 0 0 0 0 0 0 0 0 0 0 0 0 0 0 0 0 0.15 0"/>
<feBlend mode="normal" in2="BackgroundImageFix" result="effect1_dropShadow_1_1316"/>
<feBlend mode="normal" in="SourceGraphic" in2="effect1_dropShadow_1_1316" result="shape"/>
</filter>
</defs>
</svg>
