<svg width="120" height="123" viewBox="0 0 120 123" fill="none" xmlns="http://www.w3.org/2000/svg">
<g filter="url(#filter0_d_1_1368)">
<ellipse cx="56.0596" cy="57.7555" rx="39.2471" ry="40.868" fill="white"/>
<path d="M52.2305 37.8198V43.8609H44.5726V49.902H40.7436V55.9431H37.7762C37.4112 55.9525 37.1031 56.3632 37.0343 56.9248C37.0343 56.9248 36.9146 57.9584 36.9146 59.2657C36.9146 60.0964 36.9685 60.9978 37.0582 61.9087C37.0134 61.9276 36.9535 61.97 36.9146 61.9842H37.0582C37.2796 64.1694 37.7881 66.4961 38.6377 68.7049C38.6407 68.7144 38.6347 68.7332 38.6377 68.7427C38.6437 68.7663 38.6526 68.7946 38.6616 68.8182C38.7005 69.1061 38.8022 69.3609 38.9488 69.5356C38.9637 69.5497 38.9817 69.5639 38.9966 69.5733C39.233 70.1114 39.4812 70.6494 39.7624 71.1591C41.8115 74.8876 45.1379 77.6911 49.9331 77.6911C57.7616 77.6911 64.3815 72.4287 68.1207 61.9842H75.0846C74.253 61.6538 72.4672 61.2102 72.7633 59.4923C71.7732 61.2999 69.8886 61.5264 68.4318 61.1158C68.71 60.2851 68.9792 59.4403 69.2215 58.5483C71.4351 58.4587 73.0236 57.3354 73.912 55.9809C74.8842 54.4989 75.1803 52.847 75.1803 52.847C75.2551 52.3845 75.1534 51.8984 74.9171 51.6011C74.9171 51.6011 72.9817 49.3734 70.083 50.1286C69.2574 45.8573 67.1156 43.7854 67.1156 43.7854C66.957 43.6391 66.7716 43.5825 66.5891 43.6344C66.4665 43.6769 66.3498 43.7665 66.2541 43.8987C66.2541 43.8987 65.7425 44.5877 65.3208 45.8243C64.899 47.0608 64.5101 48.9439 64.6507 51.3745C64.7165 52.512 64.9438 53.5927 65.2729 54.6216C65.0874 54.801 64.9797 54.952 64.6746 55.1502C64.0405 55.5655 63.1161 55.9431 61.8029 55.9431H61.42V49.902H57.591V37.8198H52.2305ZM53.7621 40.2363H56.0595V43.8609H53.7621V40.2363ZM46.1042 46.2774H48.4015V49.902H46.1042V46.2774ZM49.9331 46.2774H52.2305V49.902H49.9331V46.2774ZM53.7621 46.2774H56.0595V49.902H53.7621V46.2774ZM66.8523 46.5417C67.4207 47.2071 68.4497 48.5994 68.8147 51.6388C68.8536 51.9739 68.9792 52.2618 69.1617 52.4412C69.3442 52.6205 69.5655 52.6724 69.7719 52.5828C71.7253 51.7379 72.7813 52.4317 73.3616 52.9603C73.2509 53.3426 73.2689 53.5786 72.8351 54.2441C72.1381 55.306 70.9565 56.3773 68.7429 56.2452C68.4198 56.2263 68.1237 56.5283 68.001 57.0003C67.6959 58.2038 67.3429 59.3176 66.972 60.3984C66.8583 60.2946 66.7626 60.1719 66.6848 60.0586C65.6588 62.4042 59.7059 61.5075 59.2901 59.681C58.0068 62.0597 54.0193 62.0597 52.733 59.681C52.3172 61.5075 46.3405 62.4042 45.3144 60.0586C44.3961 61.4179 40.7705 62.2532 39.2599 59.4923C39.4035 60.3229 39.0325 60.8609 38.542 61.2291C38.4791 60.54 38.4462 59.884 38.4462 59.2657C38.4462 58.7466 38.4702 58.6994 38.4941 58.3595H61.8029C63.3106 58.3595 64.4413 57.9065 65.249 57.3779C66.0566 56.8493 66.631 56.2074 66.7088 56.1319C66.8942 55.9478 67.0199 55.6505 67.0558 55.3107C67.0917 54.9756 67.0348 54.6263 66.9002 54.3573C66.4754 53.4842 66.2541 52.3892 66.1823 51.148C66.0716 49.1988 66.3618 47.8348 66.6609 46.957C66.7626 46.6596 66.7686 46.721 66.8523 46.5417ZM42.2752 52.3185H44.5726V55.9431H42.2752V52.3185ZM46.1042 52.3185H48.4015V55.9431H46.1042V52.3185ZM49.9331 52.3185H52.2305V55.9431H49.9331V52.3185ZM53.7621 52.3185H56.0595V55.9431H53.7621V52.3185ZM57.591 52.3185H59.8884V55.9431H57.591V52.3185ZM38.6377 61.9842H66.3977C62.8828 70.942 57.0466 75.2746 49.9331 75.2746C45.7452 75.2746 43.029 73.0328 41.2462 70.0642C44.6444 70.319 47.2768 68.8937 47.2768 68.8937C47.6986 68.8088 48.0007 68.1999 47.9468 67.5345C47.893 66.869 47.5071 66.3923 47.0853 66.4773C47.0434 66.4867 47.0046 66.4961 46.9657 66.515C46.8999 66.5292 46.837 66.5528 46.7742 66.5905C46.7742 66.5905 43.6422 68.2754 39.9778 67.4589C39.2898 65.6702 38.856 63.7541 38.6377 61.9842ZM49.1673 64.4006C48.7455 64.4006 48.4015 64.9434 48.4015 65.6089C48.4015 66.2743 48.7455 66.8171 49.1673 66.8171C49.5891 66.8171 49.9331 66.2743 49.9331 65.6089C49.9331 65.4437 49.9241 65.2974 49.8853 65.1558C49.8314 65.3068 49.7147 65.4201 49.5981 65.4201C49.4246 65.4201 49.287 65.1652 49.287 64.8915C49.287 64.7074 49.3618 64.5611 49.4545 64.4762C49.3677 64.4242 49.266 64.4006 49.1673 64.4006Z" fill="black"/>
</g>
<defs>
<filter id="filter0_d_1_1368" x="0.812439" y="0.887451" width="118.494" height="121.736" filterUnits="userSpaceOnUse" color-interpolation-filters="sRGB">
<feFlood flood-opacity="0" result="BackgroundImageFix"/>
<feColorMatrix in="SourceAlpha" type="matrix" values="0 0 0 0 0 0 0 0 0 0 0 0 0 0 0 0 0 0 127 0" result="hardAlpha"/>
<feOffset dx="4" dy="4"/>
<feGaussianBlur stdDeviation="10"/>
<feComposite in2="hardAlpha" operator="out"/>
<feColorMatrix type="matrix" values="0 0 0 0 0 0 0 0 0 0 0 0 0 0 0 0 0 0 0.15 0"/>
<feBlend mode="normal" in2="BackgroundImageFix" result="effect1_dropShadow_1_1368"/>
<feBlend mode="normal" in="SourceGraphic" in2="effect1_dropShadow_1_1368" result="shape"/>
</filter>
</defs>
</svg>
