<svg width="41" height="40" viewBox="0 0 41 40" fill="none" xmlns="http://www.w3.org/2000/svg">
<ellipse cx="20.2023" cy="20" rx="20.2023" ry="20" fill="#FB0F00"/>
<path d="M29.8446 14.6962C30.7322 13.8176 30.4924 12.1555 29.309 10.984C28.1255 9.8124 26.4467 9.57497 25.5591 10.4536C24.6716 11.3323 24.9114 12.9944 26.0948 14.1659C27.2782 15.3375 28.9571 15.5749 29.8446 14.6962Z" stroke="white" stroke-width="2" stroke-miterlimit="10" stroke-linecap="round" stroke-linejoin="round"/>
<path d="M14.8234 29.525C13.9901 30.425 12.2477 30.2 11.1113 29C9.97489 27.8 9.67186 26.15 10.581 25.325" stroke="white" stroke-width="2" stroke-miterlimit="10" stroke-linecap="round" stroke-linejoin="round"/>
<path d="M10.581 25.325C15.8841 20.75 20.9599 15.725 25.5812 10.475" stroke="white" stroke-width="2" stroke-miterlimit="10" stroke-linecap="round" stroke-linejoin="round"/>
<path d="M14.8234 29.525C19.4447 24.275 24.5206 19.25 29.8237 14.675" stroke="white" stroke-width="2" stroke-miterlimit="10" stroke-linecap="round" stroke-linejoin="round"/>
<path d="M18.0811 17.9C19.1417 19.625 22.4751 22.25 22.4751 22.25" stroke="white" stroke-width="2" stroke-miterlimit="10" stroke-linecap="round" stroke-linejoin="round"/>
<path d="M21.7175 26.75V21.5C23.6115 22.4 23.9902 24.275 23.9902 26.375V29.75" stroke="white" stroke-width="2" stroke-miterlimit="10" stroke-linecap="round" stroke-linejoin="round"/>
</svg>
