<svg width="176" height="40" viewBox="0 0 176 40" fill="none" xmlns="http://www.w3.org/2000/svg">
<g clip-path="url(#clip0_1_61)">
<path d="M59.9431 32.4506C59.2928 32.4506 58.805 32.3394 58.4798 32.1169C58.1545 31.9192 57.942 31.6471 57.8419 31.3011C57.7417 30.9551 57.6918 30.5843 57.6918 30.1887V8.75631C57.6918 8.36078 57.7293 8.00235 57.8043 7.68098C57.9045 7.33491 58.1169 7.06297 58.4422 6.86522C58.7675 6.64273 59.2801 6.53149 59.9807 6.53149L67.035 6.56857C68.8612 6.56857 70.537 6.87757 72.063 7.49558C73.6139 8.1136 74.9523 8.99114 76.078 10.1283C77.2037 11.2654 78.0667 12.625 78.6671 14.2071C79.2926 15.7645 79.6052 17.4825 79.6052 19.3613C79.6052 21.2894 79.2926 23.057 78.6671 24.6638C78.0416 26.2706 77.1662 27.6549 76.0405 28.8167C74.9148 29.9785 73.5764 30.881 72.0255 31.5236C70.4995 32.1417 68.7986 32.4506 66.9224 32.4506H59.9431ZM62.232 27.9639H67.035C68.6361 27.9639 70.0368 27.6178 71.2375 26.9257C72.4383 26.2088 73.3639 25.22 74.0142 23.9592C74.6897 22.6985 75.0274 21.2276 75.0274 19.5467C75.0274 17.841 74.6897 16.3578 74.0142 15.097C73.3639 13.8116 72.4259 12.8228 71.2 12.1306C69.9993 11.4137 68.5985 11.0553 66.9975 11.0553H62.232V27.9639ZM83.4957 32.4877C82.8203 32.4877 82.3201 32.3765 81.9948 32.154C81.6946 31.9563 81.507 31.6842 81.432 31.3382C81.3569 30.9922 81.3194 30.6089 81.3194 30.1887V16.4319C81.3194 15.987 81.3569 15.6038 81.432 15.2824C81.507 14.9364 81.6946 14.6768 81.9948 14.5038C82.3201 14.306 82.833 14.2071 83.5332 14.2071C84.2087 14.2071 84.6965 14.2936 84.9966 14.4667C85.3219 14.6397 85.522 14.8622 85.597 15.1341C85.6972 15.3813 85.7471 15.6285 85.7471 15.8757L85.4469 16.5432C85.5722 16.3454 85.7471 16.1106 85.9722 15.8386C86.1974 15.542 86.4976 15.2577 86.8728 14.9858C87.248 14.6892 87.6983 14.4543 88.2236 14.2813C88.7489 14.0835 89.3744 13.9846 90.0998 13.9846C90.3999 13.9846 90.7128 14.0217 91.0378 14.0959C91.3882 14.1453 91.726 14.2318 92.051 14.3554C92.4014 14.4543 92.714 14.5903 92.989 14.7633C93.2644 14.9364 93.4768 15.1465 93.6269 15.3937C93.777 15.6162 93.852 15.8757 93.852 16.1724C93.852 16.9634 93.652 17.6309 93.2517 18.1747C92.8516 18.7186 92.3762 18.9905 91.8258 18.9905C91.4506 18.9905 91.1755 18.9534 91.0003 18.8792C90.8254 18.8051 90.6753 18.7186 90.55 18.6197C90.4502 18.5208 90.2874 18.4343 90.0622 18.3601C89.8622 18.2859 89.5369 18.2489 89.0866 18.2489C88.7114 18.2489 88.3238 18.3107 87.9234 18.4343C87.5482 18.5579 87.1981 18.7433 86.8728 18.9905C86.5478 19.2377 86.2851 19.559 86.0848 19.9546C85.8848 20.3254 85.7846 20.758 85.7846 21.2524V30.2629C85.7846 30.683 85.7471 31.0664 85.6721 31.4124C85.597 31.7338 85.397 31.9934 85.0717 32.1911C84.7467 32.3887 84.2214 32.4877 83.4957 32.4877ZM102.774 32.7102C101.148 32.7102 99.7219 32.4506 98.4963 31.9315C97.2956 31.4124 96.2825 30.7078 95.457 29.8179C94.6563 28.9033 94.0435 27.8897 93.6183 26.7773C93.218 25.6402 93.018 24.466 93.018 23.2547C93.018 21.4749 93.4307 19.8927 94.2562 18.5084C95.0817 17.1241 96.2198 16.0364 97.6708 15.2454C99.1466 14.4543 100.835 14.0588 102.736 14.0588C104.087 14.0588 105.275 14.2689 106.301 14.6892C107.327 15.1094 108.177 15.6656 108.853 16.3578C109.553 17.0252 110.078 17.7668 110.429 18.5826C110.804 19.3984 110.991 20.1894 110.991 20.9557C110.991 22.2659 110.666 23.2176 110.016 23.8109C109.39 24.4042 108.602 24.7008 107.652 24.7008H97.7459C97.7707 25.5413 98.0333 26.2706 98.5338 26.8886C99.0592 27.5066 99.7095 27.9886 100.485 28.3347C101.285 28.6561 102.099 28.8167 102.924 28.8167C103.549 28.8167 104.1 28.7797 104.575 28.7055C105.075 28.6313 105.5 28.5448 105.851 28.4459C106.201 28.3224 106.501 28.1987 106.751 28.0751C107.026 27.9516 107.277 27.8403 107.502 27.7414C107.727 27.6425 107.939 27.5807 108.14 27.556C108.415 27.5313 108.69 27.5931 108.965 27.7414C109.24 27.8897 109.465 28.1493 109.641 28.5201C109.791 28.7673 109.891 29.0021 109.941 29.2246C110.016 29.4223 110.053 29.6203 110.053 29.8179C110.053 30.3122 109.753 30.782 109.153 31.227C108.552 31.6471 107.702 31.9934 106.601 32.2652C105.526 32.5619 104.25 32.7102 102.774 32.7102ZM97.7459 22.0681H105.438C105.863 22.0681 106.189 22.0063 106.414 21.8827C106.639 21.7344 106.751 21.4378 106.751 20.9928C106.751 20.4243 106.576 19.9175 106.226 19.4725C105.876 19.0028 105.401 18.6444 104.8 18.3972C104.2 18.1253 103.499 17.9893 102.699 17.9893C101.773 17.9893 100.935 18.1747 100.185 18.5455C99.4344 18.8916 98.834 19.3736 98.3838 19.9916C97.9583 20.6097 97.7459 21.3018 97.7459 22.0681ZM127.579 32.4135C126.853 32.4135 126.316 32.2775 125.965 32.0057C125.615 31.7338 125.44 31.363 125.44 30.8932L125.703 29.6696C125.502 29.9911 125.165 30.3741 124.689 30.8191C124.214 31.2392 123.589 31.6226 122.813 31.9686C122.038 32.29 121.1 32.4506 119.999 32.4506C118.823 32.4506 117.71 32.2159 116.659 31.7461C115.634 31.2518 114.721 30.5843 113.92 29.7438C113.145 28.8786 112.52 27.9021 112.044 26.8144C111.594 25.702 111.369 24.5154 111.369 23.2547C111.369 22.0434 111.594 20.9063 112.044 19.8433C112.52 18.7556 113.157 17.7916 113.958 16.9511C114.759 16.1106 115.671 15.4555 116.697 14.9858C117.748 14.4914 118.849 14.2442 119.999 14.2442C121.025 14.2442 121.888 14.3802 122.588 14.6521C123.314 14.924 123.927 15.2701 124.427 15.6903C124.927 16.0859 125.34 16.5061 125.665 16.9511L125.44 15.8757C125.44 15.3319 125.615 14.924 125.965 14.6521C126.316 14.3554 126.866 14.2071 127.616 14.2071C128.317 14.2071 128.817 14.3184 129.117 14.5408C129.417 14.7386 129.605 15.0229 129.68 15.3937C129.755 15.7398 129.793 16.1353 129.793 16.5803V30.1516C129.793 30.5718 129.755 30.9551 129.68 31.3011C129.605 31.6471 129.405 31.9192 129.08 32.1169C128.779 32.3146 128.279 32.4135 127.579 32.4135ZM120.674 28.1122C121.525 28.1122 122.288 27.9021 122.963 27.4819C123.639 27.0616 124.177 26.493 124.577 25.7762C125.002 25.0346 125.215 24.2188 125.215 23.3289C125.215 22.3648 125.002 21.5243 124.577 20.8074C124.152 20.0905 123.589 19.5343 122.888 19.1388C122.213 18.7186 121.45 18.5084 120.599 18.5084C119.674 18.5084 118.849 18.7309 118.123 19.1759C117.398 19.5961 116.822 20.177 116.397 20.9186C115.997 21.6355 115.796 22.4513 115.796 23.3659C115.796 24.2559 116.009 25.0593 116.434 25.7762C116.86 26.493 117.435 27.0616 118.16 27.4819C118.911 27.9021 119.749 28.1122 120.674 28.1122ZM133.858 32.4506C133.182 32.4506 132.682 32.3516 132.357 32.154C132.057 31.9563 131.869 31.6842 131.794 31.3382C131.719 30.9922 131.681 30.6214 131.681 30.2258V16.3578C131.681 15.9622 131.719 15.6038 131.794 15.2824C131.869 14.9611 132.069 14.7015 132.394 14.5038C132.72 14.306 133.232 14.2071 133.933 14.2071C134.658 14.2071 135.183 14.3554 135.509 14.6521C135.859 14.9487 136.034 15.4184 136.034 16.0611L135.696 17.0994C135.821 16.8275 136.034 16.5308 136.334 16.2094C136.634 15.8881 136.997 15.5667 137.422 15.2454C137.873 14.924 138.373 14.6644 138.923 14.4667C139.474 14.2689 140.049 14.17 140.649 14.17C141.475 14.17 142.225 14.306 142.901 14.5779C143.601 14.8498 144.214 15.2454 144.739 15.7645C145.29 16.2836 145.765 16.914 146.165 17.6556C146.59 17.0129 147.066 16.4319 147.591 15.9128C148.116 15.369 148.729 14.9487 149.43 14.6521C150.13 14.3307 150.918 14.17 151.794 14.17C153.245 14.17 154.458 14.5285 155.433 15.2454C156.434 15.9622 157.185 16.9881 157.685 18.323C158.21 19.6332 158.473 21.2029 158.473 23.0322V30.2258C158.473 30.6459 158.423 31.0293 158.323 31.3753C158.248 31.6967 158.048 31.9563 157.722 32.154C157.422 32.3516 156.922 32.4506 156.221 32.4506C155.521 32.4506 155.008 32.3394 154.683 32.1169C154.358 31.9192 154.158 31.6597 154.083 31.3382C154.007 30.9922 153.97 30.6089 153.97 30.1887V22.9951C153.97 22.0805 153.857 21.2894 153.632 20.622C153.407 19.9546 153.069 19.4354 152.619 19.0646C152.194 18.6938 151.631 18.5084 150.931 18.5084C150.18 18.5084 149.53 18.6938 148.979 19.0646C148.454 19.4107 148.041 19.9175 147.741 20.5849C147.441 21.2524 147.291 22.0681 147.291 23.0322V30.2629C147.291 30.683 147.228 31.0786 147.103 31.4494C146.978 31.7954 146.728 32.055 146.353 32.2281C146.003 32.4258 145.49 32.5 144.814 32.4506C144.189 32.4258 143.726 32.3023 143.426 32.0798C143.151 31.8573 142.976 31.5855 142.901 31.264C142.851 30.9181 142.826 30.5595 142.826 30.1887V22.9951C142.826 22.0805 142.713 21.2894 142.488 20.622C142.263 19.9298 141.925 19.4107 141.475 19.0646C141.05 18.6938 140.474 18.5084 139.749 18.5084C138.973 18.5084 138.311 18.7062 137.76 19.1017C137.235 19.4972 136.834 20.0287 136.559 20.6962C136.284 21.3636 136.147 22.1299 136.147 22.9951V30.2629C136.147 30.6585 136.097 31.0293 135.996 31.3753C135.921 31.7213 135.721 31.9808 135.396 32.154C135.096 32.3516 134.583 32.4506 133.858 32.4506ZM166.782 32.7102C166.132 32.7102 165.444 32.636 164.719 32.4877C163.993 32.3642 163.293 32.1788 162.617 31.9315C161.942 31.6597 161.354 31.3505 160.854 31.0045C160.378 30.6337 160.078 30.2258 159.953 29.7808C159.853 29.5335 159.816 29.2988 159.841 29.0763C159.865 28.8291 159.941 28.5819 160.066 28.3347C160.191 28.0628 160.378 27.7908 160.629 27.5189C160.854 27.247 161.079 27.0987 161.304 27.074C161.554 27.0245 161.867 27.0987 162.242 27.2965C162.567 27.42 162.918 27.5807 163.293 27.7785C163.693 27.9763 164.093 28.174 164.494 28.3718C164.919 28.5695 165.344 28.7302 165.769 28.8538C166.22 28.9774 166.657 29.0392 167.083 29.0392C168.008 29.0392 168.746 28.8909 169.296 28.5943C169.847 28.2729 170.122 27.8279 170.122 27.2594C170.122 26.938 170.034 26.6537 169.859 26.4065C169.684 26.1593 169.447 25.9616 169.146 25.8132C168.871 25.6402 168.533 25.4919 168.133 25.3683C167.758 25.22 167.345 25.0964 166.895 24.9975C166.47 24.8739 166.019 24.7379 165.544 24.5896C164.919 24.4165 164.293 24.2064 163.668 23.9592C163.043 23.712 162.48 23.3907 161.979 22.9951C161.504 22.5996 161.116 22.1052 160.816 21.5119C160.516 20.9186 160.366 20.177 160.366 19.2871C160.366 18.1747 160.629 17.2353 161.154 16.469C161.704 15.678 162.492 15.0723 163.518 14.6521C164.543 14.2318 165.782 14.0217 167.233 14.0217C167.733 14.0217 168.208 14.0588 168.659 14.133C169.134 14.2071 169.584 14.3184 170.009 14.4667C170.46 14.5903 170.885 14.751 171.285 14.9487C171.71 15.1465 172.111 15.369 172.486 15.6162C173.111 15.9622 173.436 16.3701 173.462 16.8398C173.486 17.2848 173.311 17.7668 172.936 18.2859C172.661 18.632 172.386 18.8792 172.111 19.0276C171.835 19.1511 171.548 19.1511 171.248 19.0276C170.847 18.8298 170.409 18.6197 169.934 18.3972C169.484 18.15 169.009 17.9399 168.508 17.7668C168.033 17.5938 167.533 17.5073 167.008 17.5073C166.507 17.5073 166.057 17.5814 165.657 17.7297C165.256 17.8781 164.956 18.0882 164.756 18.3601C164.556 18.632 164.456 18.9534 164.456 19.3242C164.456 19.6703 164.556 19.9546 164.756 20.177C164.956 20.3995 165.219 20.5849 165.544 20.7332C165.869 20.8816 166.257 21.0175 166.707 21.1411C167.158 21.24 167.633 21.3389 168.133 21.4378C168.833 21.5861 169.546 21.7715 170.272 21.994C170.997 22.2165 171.66 22.5254 172.261 22.921C172.886 23.3165 173.386 23.848 173.762 24.5154C174.137 25.1581 174.325 25.9986 174.325 27.0369C174.325 28.8415 173.649 30.2381 172.298 31.227C170.972 32.2159 169.134 32.7102 166.782 32.7102Z" fill="white"/>
<path d="M150.311 11.4919C150.027 11.4919 149.822 11.453 149.696 11.3751C149.57 11.2895 149.491 11.1766 149.46 11.0364C149.428 10.8963 149.413 10.7523 149.413 10.6043V4.21601C149.413 4.0603 149.424 3.91624 149.448 3.78389C149.479 3.65154 149.558 3.54252 149.684 3.45689C149.81 3.37125 150.019 3.32842 150.311 3.32842C150.61 3.32842 150.819 3.37125 150.937 3.45689C151.063 3.54252 151.138 3.65154 151.162 3.78389C151.193 3.91624 151.209 4.0603 151.209 4.21601V9.95032H154.447C154.581 9.95032 154.707 9.962 154.825 9.98535C154.944 10.0087 155.038 10.0749 155.109 10.1839C155.188 10.2929 155.227 10.472 155.227 10.7211C155.227 10.9625 155.188 11.1416 155.109 11.2583C155.03 11.3673 154.932 11.4335 154.814 11.4569C154.703 11.4802 154.581 11.4919 154.447 11.4919H150.311ZM158.009 11.4919C157.726 11.4919 157.521 11.4491 157.395 11.3635C157.277 11.2778 157.202 11.1688 157.17 11.0364C157.139 10.8963 157.123 10.7484 157.123 10.5927V4.20433C157.123 4.05639 157.139 3.92016 157.17 3.79557C157.202 3.66322 157.281 3.5542 157.407 3.46856C157.533 3.38293 157.742 3.3401 158.033 3.3401C158.23 3.3401 158.38 3.35178 158.482 3.37513C158.585 3.39849 158.659 3.43353 158.707 3.48024C158.754 3.51916 158.805 3.56588 158.86 3.62039L161.519 7.17075H161.342L164.013 3.62039C164.076 3.54252 164.139 3.48413 164.202 3.44521C164.265 3.40629 164.344 3.37902 164.439 3.36345C164.541 3.34789 164.683 3.3401 164.864 3.3401C165.148 3.3401 165.352 3.38293 165.479 3.46856C165.605 3.5542 165.683 3.6671 165.715 3.80725C165.747 3.9396 165.762 4.07975 165.762 4.22769V10.616C165.762 10.764 165.747 10.9041 165.715 11.0364C165.683 11.1688 165.605 11.2778 165.479 11.3635C165.352 11.4491 165.144 11.4919 164.852 11.4919C164.569 11.4919 164.364 11.4491 164.238 11.3635C164.112 11.2778 164.033 11.1649 164.001 11.0248C163.97 10.8846 163.954 10.7406 163.954 10.5927V6.42331L162.193 8.88754C162.162 8.92646 162.118 8.98097 162.063 9.05105C162.008 9.11332 161.929 9.16783 161.827 9.21455C161.732 9.26126 161.602 9.28462 161.437 9.28462C161.263 9.28462 161.126 9.26126 161.023 9.21455C160.929 9.16783 160.854 9.11332 160.799 9.05105C160.743 8.98877 160.696 8.93426 160.657 8.88754L158.908 6.43499V10.616C158.908 10.764 158.892 10.9041 158.86 11.0364C158.829 11.1688 158.75 11.2778 158.624 11.3635C158.506 11.4491 158.301 11.4919 158.009 11.4919ZM170.637 11.6087C170.219 11.6087 169.853 11.5581 169.538 11.4569C169.23 11.3557 168.966 11.235 168.746 11.0948C168.533 10.9469 168.364 10.8029 168.238 10.6627C168.111 10.5226 168.025 10.4175 167.978 10.3474C167.844 10.1761 167.761 10.0282 167.729 9.9036C167.698 9.77125 167.714 9.63887 167.777 9.50652C167.848 9.37417 167.966 9.23011 168.131 9.0744C168.297 8.93426 168.45 8.8603 168.592 8.85251C168.742 8.83694 168.888 8.87198 169.029 8.95762C169.171 9.04325 169.309 9.16395 169.443 9.31966C169.632 9.54544 169.817 9.70506 169.998 9.79849C170.188 9.88413 170.385 9.92696 170.589 9.92696C170.849 9.92696 171.07 9.89581 171.251 9.83353C171.432 9.77125 171.57 9.67391 171.665 9.54156C171.759 9.40141 171.807 9.22623 171.807 9.01601C171.807 8.84471 171.74 8.70848 171.606 8.60725C171.48 8.49826 171.306 8.40483 171.086 8.32696C170.873 8.24909 170.633 8.17513 170.365 8.10506C170.105 8.02719 169.845 7.93767 169.585 7.83645C169.404 7.77417 169.23 7.6963 169.065 7.60287C168.899 7.50944 168.742 7.40433 168.592 7.28754C168.442 7.17075 168.312 7.03061 168.202 6.8671C168.1 6.7036 168.017 6.51674 167.954 6.30652C167.899 6.0963 167.871 5.85493 167.871 5.58243C167.871 5.12308 167.986 4.71432 168.214 4.35616C168.442 3.998 168.758 3.7177 169.159 3.51528C169.569 3.30506 170.038 3.19995 170.566 3.19995C170.92 3.19995 171.228 3.2311 171.488 3.29338C171.756 3.35566 171.98 3.42964 172.161 3.51528C172.342 3.60091 172.484 3.68658 172.587 3.77221C172.697 3.85008 172.772 3.91236 172.811 3.95908C173.032 4.1615 173.154 4.33668 173.178 4.48462C173.201 4.62477 173.119 4.82331 172.929 5.08024C172.732 5.35274 172.536 5.50456 172.339 5.53572C172.149 5.56687 171.933 5.50068 171.689 5.33718C171.594 5.25154 171.499 5.17367 171.405 5.1036C171.31 5.03353 171.196 4.97902 171.062 4.9401C170.936 4.89338 170.767 4.87002 170.554 4.87002C170.428 4.87002 170.31 4.8895 170.199 4.92842C170.089 4.95957 169.995 5.00629 169.916 5.06856C169.837 5.13084 169.774 5.20871 169.727 5.30214C169.679 5.38778 169.656 5.48512 169.656 5.59411C169.656 5.77318 169.715 5.91724 169.833 6.02623C169.959 6.13522 170.121 6.22477 170.318 6.29484C170.522 6.35712 170.747 6.41943 170.991 6.4817C171.243 6.53621 171.499 6.60237 171.759 6.68024C171.996 6.75811 172.224 6.85543 172.445 6.97221C172.666 7.08121 172.862 7.22135 173.036 7.39265C173.209 7.56395 173.347 7.77805 173.449 8.03499C173.56 8.29192 173.615 8.60725 173.615 8.98097C173.615 9.44813 173.524 9.84909 173.343 10.1839C173.162 10.5187 172.921 10.7912 172.622 11.0014C172.323 11.2116 172 11.3635 171.653 11.4569C171.306 11.5581 170.968 11.6087 170.637 11.6087Z" fill="#FFD600"/>
<path d="M40.2604 16.1475V23.8713C40.2604 24.9994 39.7239 26.048 38.8408 26.6393C38.0983 27.1364 37.0988 27.7698 35.9172 28.4298V16.1475H40.2604Z" fill="white"/>
<path d="M35.6957 16.1475V28.484C32.5119 30.2746 28.016 32.26 23.7483 32.26C17.8993 32.26 11.6214 28.5288 8.87746 26.6862C7.99423 26.0926 7.45789 25.0398 7.45789 23.9071V16.1475H35.6957Z" fill="white"/>
<path d="M40.0439 15.9866V23.5302C40.0439 24.6357 39.5076 25.6626 38.6245 26.2413C35.8809 28.0393 29.6032 31.6798 23.7536 31.6798C17.904 31.6798 11.6265 28.0393 8.88276 26.2413C7.99976 25.6626 7.46327 24.6357 7.46327 23.5302V15.9866H40.0439ZM40.9306 15.1096H40.0439H7.46339H6.57684V15.9866V23.5302C6.57684 24.9402 7.25583 26.227 8.39316 26.9724C9.83871 27.9197 12.1238 29.29 14.8005 30.4392C18.0735 31.8445 21.0857 32.5569 23.7536 32.5569C26.4216 32.5569 29.4338 31.8445 32.7068 30.4392C35.3834 29.29 37.6684 27.9196 39.1141 26.9724C40.2513 26.227 40.9306 24.9402 40.9306 23.5302V15.9866V15.1096Z" fill="white"/>
<path d="M35.285 30.2732C34.455 30.3725 33.6907 30.7687 33.1355 31.3871C32.5806 32.0057 32.274 32.8037 32.2731 33.6306V36.6142C32.2731 37.8236 32.9251 38.9415 33.9844 39.5462C35.0436 40.1511 36.3483 40.1511 37.4072 39.5462C38.4664 38.9415 39.1188 37.8236 39.1188 36.6142V33.6306C39.1179 32.8037 38.8109 32.0057 38.2561 31.3871C37.7012 30.7687 36.9366 30.3725 36.1066 30.2732" fill="#FFD600"/>
<path d="M38.2969 34.0288H33.0948V33.6671C33.0948 32.2461 34.2595 31.0942 35.6957 31.0942C37.1322 31.0942 38.2969 32.2464 38.2969 33.6671V34.0288Z" fill="#2D0160"/>
<path d="M35.6957 17.0923V34.5995Z" fill="#FFD600"/>
<path d="M35.6957 17.0923V34.5995" stroke="#FFD600" stroke-width="3" stroke-miterlimit="10" stroke-linecap="round"/>
<path d="M44.4506 14.9864L24.7486 24.2648C24.0851 24.5772 23.3145 24.5764 22.6517 24.2626L2.84202 14.8836C1.00552 14.0141 0.995771 11.4313 2.82562 10.5481L22.6245 0.993295C23.3025 0.666071 24.0956 0.668375 24.7718 0.999543L44.4846 10.6551C46.3052 11.5469 46.2851 14.1226 44.4506 14.9864Z" fill="#FFD600"/>
<path d="M23.6918 1.15341C23.9633 1.15341 24.2347 1.21349 24.4843 1.33366L44.6639 11.0424C46 11.6852 45.9852 13.5419 44.6391 14.1647L24.4675 23.4958C24.2247 23.608 23.9622 23.6643 23.6997 23.6643C23.436 23.6643 23.1725 23.6076 22.9287 23.4942L2.6498 14.0634C1.30202 13.4366 1.29492 11.5748 2.63772 10.9382L22.9085 1.32913C23.1557 1.21198 23.4238 1.15341 23.6918 1.15341ZM23.6918 0.291992C23.2878 0.291992 22.8827 0.382979 22.5199 0.554938L2.24908 10.164C1.31941 10.6047 0.744371 11.5027 0.748249 12.5077C0.752128 13.5126 1.33404 14.4064 2.26703 14.8404L22.5458 24.2711C22.9038 24.4376 23.3028 24.5256 23.6996 24.5256C24.0946 24.5256 24.4919 24.4384 24.8485 24.2734L45.02 14.9424C45.9518 14.5112 46.5359 13.6205 46.5439 12.6176C46.5519 11.6148 45.9823 10.7154 45.0572 10.2704L24.8777 0.561721C24.5111 0.385239 24.1009 0.291992 23.6918 0.291992Z" fill="#FFD600"/>
</g>
<defs>
<clipPath id="clip0_1_61">
<rect width="174.91" height="40" fill="white" transform="translate(0.74823)"/>
</clipPath>
</defs>
</svg>
