<svg width="119" height="123" viewBox="0 0 119 123" fill="none" xmlns="http://www.w3.org/2000/svg">
<g filter="url(#filter0_d_1_1350)">
<ellipse cx="55.3844" cy="57.7555" rx="39.2471" ry="40.868" fill="white"/>
<path d="M55.375 37.8198C54.7927 37.8198 54.2105 37.9571 53.708 38.2332L37.8972 47.0059C36.8761 47.5733 36.2394 48.6476 36.2394 49.7824V65.6985C36.2394 66.8487 36.8761 67.9076 37.8972 68.475L42.0477 70.7753C44.058 71.7261 44.7748 71.7247 45.6842 71.7247C48.6676 71.7247 50.3738 69.9921 50.3738 66.9864V50.5641C50.3738 50.3188 50.1679 50.1178 49.9126 50.1178H47.9184C47.6471 50.1178 47.4541 50.3188 47.4541 50.5641V66.9715C47.4541 68.321 46.004 69.6394 43.6587 68.52L39.3181 66.1119C39.1585 66.0352 39.0626 65.8672 39.0626 65.6985V49.7974C39.0626 49.6133 39.1585 49.4581 39.3181 49.3661L55.1289 40.5963C55.2725 40.5043 55.4648 40.5043 55.6243 40.5963L71.4351 49.3661C71.5946 49.4581 71.6906 49.6137 71.6906 49.7824V65.6985C71.6906 65.8672 71.5943 66.0352 71.4507 66.1119L55.6243 74.8996C55.4807 74.9763 55.2725 74.9763 55.1289 74.8996L51.0593 72.5843C50.9476 72.5077 50.7908 72.4931 50.6792 72.5544C49.5464 73.1678 49.339 73.244 48.286 73.5967C48.0308 73.6734 47.6317 73.8263 48.4294 74.2556L53.708 77.2627C54.2185 77.5388 54.7945 77.6911 55.3688 77.6911C55.9591 77.6911 56.5316 77.5388 57.0421 77.2627L72.8716 68.475C73.8927 67.9076 74.5293 66.8487 74.5293 65.6985V49.7974C74.5293 48.6472 73.8927 47.5883 72.8716 47.0209L57.0421 38.2332C56.5396 37.9571 55.9574 37.8198 55.375 37.8198ZM59.6284 50.0969C55.1134 50.0969 52.4179 51.9359 52.4179 55.0029C52.4179 58.3306 55.0957 59.2493 59.4352 59.6633C64.6203 60.1541 65.0192 60.8923 65.0192 61.8737C65.0192 63.5606 63.6016 64.2818 60.2672 64.2818C56.0713 64.2818 55.1453 63.2683 54.8422 61.2747C54.8103 61.06 54.62 60.9063 54.3966 60.9063H52.3369C52.0816 60.9063 51.8913 61.1076 51.8913 61.3376C51.8913 63.8986 53.3431 66.9475 60.2672 66.9475C65.2768 66.9475 68.1477 65.0484 68.1477 61.736C68.1477 58.4543 65.834 57.5785 60.9839 56.9497C56.0541 56.3363 55.5589 56.0142 55.5589 54.9101C55.5589 53.99 55.9909 52.7805 59.6284 52.7805C62.8671 52.7805 64.079 53.4531 64.5736 55.554C64.6214 55.7534 64.7958 55.9074 65.0192 55.9074H67.0789C67.2065 55.9074 67.3166 55.8467 67.4123 55.7547C67.4921 55.678 67.5404 55.5543 67.5245 55.4162C67.2054 51.7972 64.7018 50.0969 59.6284 50.0969Z" fill="black"/>
</g>
<defs>
<filter id="filter0_d_1_1350" x="0.137245" y="0.887451" width="118.494" height="121.736" filterUnits="userSpaceOnUse" color-interpolation-filters="sRGB">
<feFlood flood-opacity="0" result="BackgroundImageFix"/>
<feColorMatrix in="SourceAlpha" type="matrix" values="0 0 0 0 0 0 0 0 0 0 0 0 0 0 0 0 0 0 127 0" result="hardAlpha"/>
<feOffset dx="4" dy="4"/>
<feGaussianBlur stdDeviation="10"/>
<feComposite in2="hardAlpha" operator="out"/>
<feColorMatrix type="matrix" values="0 0 0 0 0 0 0 0 0 0 0 0 0 0 0 0 0 0 0.15 0"/>
<feBlend mode="normal" in2="BackgroundImageFix" result="effect1_dropShadow_1_1350"/>
<feBlend mode="normal" in="SourceGraphic" in2="effect1_dropShadow_1_1350" result="shape"/>
</filter>
</defs>
</svg>
