<svg width="119" height="123" viewBox="0 0 119 123" fill="none" xmlns="http://www.w3.org/2000/svg">
<g filter="url(#filter0_d_1_1333)">
<ellipse cx="55.7087" cy="57.7618" rx="39.2471" ry="40.868" fill="white"/>
<path d="M63.6585 37.8292C63.0098 37.8043 62.3308 37.9333 61.65 38.1851C60.2883 38.6885 58.8615 39.6697 57.3972 41.0282C56.8233 41.5606 56.2442 42.1692 55.6632 42.8149C55.095 42.1856 54.5278 41.5915 53.9666 41.0708C52.5035 39.7134 51.0805 38.7337 49.722 38.2314C48.3634 37.7291 47.0116 37.7135 45.9014 38.4445C44.7912 39.1756 44.1273 40.5176 43.8295 42.1106C43.5316 43.7036 43.5628 45.6007 43.862 47.7246C43.9659 48.4623 44.1157 49.2362 44.2845 50.0247C43.6501 50.2439 43.034 50.4745 42.4628 50.729C40.7387 51.497 39.3122 52.4158 38.2733 53.5091C37.2345 54.6024 36.5638 55.9294 36.5638 57.3864C36.5638 58.8435 37.2345 60.1686 38.2733 61.2619C39.3122 62.3553 40.7387 63.2759 42.4628 64.0439C43.0736 64.316 43.735 64.561 44.4177 64.7927C44.1721 65.8392 43.9732 66.8548 43.8376 67.8175C43.5382 69.943 43.5066 71.8404 43.8051 73.437C44.1036 75.0337 44.7678 76.3833 45.8835 77.1179C46.9992 77.8526 48.3571 77.8345 49.7187 77.3311C51.0803 76.8276 52.5056 75.8483 53.9699 74.4898C54.5385 73.9623 55.1136 73.3605 55.6892 72.7216C56.2676 73.364 56.8455 73.9692 57.4167 74.499C58.8798 75.8564 60.3044 76.8361 61.663 77.3385C63.0215 77.8408 64.3717 77.8564 65.4819 77.1253C66.5921 76.3943 67.256 75.0523 67.5538 73.4593C67.8517 71.8662 67.8189 69.9691 67.5197 67.8453C67.3837 66.88 67.1846 65.8629 66.9379 64.8131C67.6432 64.5758 68.3255 64.3242 68.9546 64.0439C70.6787 63.2759 72.1053 62.3553 73.1441 61.2619C74.1829 60.1686 74.8536 58.8435 74.8536 57.3864C74.8536 55.9294 74.1829 54.6024 73.1441 53.5091C72.1053 52.4158 70.6787 51.497 68.9546 50.729C68.3752 50.4708 67.7497 50.2373 67.1053 50.0154C67.2755 49.2221 67.4265 48.4427 67.5311 47.7005C67.8305 45.5749 67.8621 43.6757 67.5636 42.0791C67.2651 40.4824 66.5992 39.1347 65.4835 38.4001C64.9256 38.0327 64.3073 37.8541 63.6585 37.8292ZM63.5822 39.7605C63.9893 39.7732 64.3365 39.8836 64.6336 40.0793C65.2277 40.4705 65.6669 41.2319 65.9011 42.485C66.1354 43.7381 66.1273 45.4312 65.8508 47.3947C65.7561 48.0669 65.6186 48.7794 65.4624 49.5094C63.7609 49.0424 61.8965 48.6957 59.9095 48.4919C58.9113 46.9145 57.8853 45.4796 56.8511 44.205C57.3979 43.5962 57.9411 43.0269 58.4713 42.535C59.824 41.2801 61.1046 40.4262 62.1732 40.0311C62.7076 39.8335 63.1751 39.7478 63.5822 39.7605ZM47.793 39.766C48.2024 39.753 48.6709 39.8385 49.2068 40.0366C50.2786 40.4329 51.5614 41.2864 52.9152 42.5424C53.4347 43.0244 53.966 43.5813 54.5013 44.1753C53.4597 45.4601 52.4265 46.91 51.4218 48.5012C49.4418 48.7087 47.5841 49.0587 45.89 49.528C45.7348 48.8014 45.5992 48.0918 45.5049 47.4225C45.2281 45.4573 45.2212 43.7621 45.4561 42.5054C45.6911 41.2486 46.1338 40.4833 46.7334 40.0885C47.0333 39.8911 47.3836 39.7791 47.793 39.766ZM55.6892 45.5709C56.3669 46.4121 57.045 47.3329 57.7173 48.3232C57.0566 48.2918 56.3879 48.2732 55.7087 48.2732C55.016 48.2732 54.3345 48.2924 53.6611 48.3251C54.3336 47.3338 55.0113 46.4128 55.6892 45.5709ZM55.7087 50.1896C56.8402 50.1896 57.943 50.2427 59.0157 50.3323C59.7538 51.5415 60.4751 52.8242 61.1624 54.1819C61.7663 55.3749 62.3128 56.566 62.8103 57.7423C62.3076 58.9342 61.7519 60.1415 61.1397 61.3509C60.6007 62.4155 60.0379 63.4267 59.4659 64.4016C58.2542 64.5171 56.9986 64.5814 55.7087 64.5814C54.3877 64.5814 53.104 64.5133 51.8654 64.3924C51.3029 63.4314 50.7496 62.4338 50.2192 61.3861C49.6084 60.1794 49.0554 58.9762 48.5535 57.7868C49.0575 56.5906 49.613 55.3789 50.2273 54.1652C50.911 52.8146 51.6302 51.5393 52.3643 50.3361C53.4486 50.2443 54.5642 50.1896 55.7087 50.1896ZM61.1592 50.5696C62.5302 50.7647 63.8174 51.0359 65.0155 51.361C64.6599 52.6906 64.2218 54.0794 63.691 55.5126C63.3464 54.755 62.9895 53.9947 62.6039 53.2329C62.1368 52.3102 61.6511 51.4291 61.1592 50.5696ZM50.1705 50.5844C49.6886 51.4283 49.2145 52.2914 48.7567 53.1959C48.3661 53.9675 48.0017 54.7379 47.6532 55.5052C47.1271 54.0806 46.6917 52.6997 46.3386 51.3777C47.5281 51.0518 48.8084 50.7818 50.1705 50.5844ZM66.6617 51.8651C67.2515 52.0687 67.8211 52.2811 68.3436 52.5138C69.9329 53.2218 71.1901 54.0601 72.0049 54.9177C72.8197 55.7753 73.1733 56.5931 73.1733 57.3864C73.1733 58.1798 72.8197 58.9976 72.0049 59.8552C71.1901 60.7128 69.9329 61.5511 68.3436 62.2591C67.763 62.5177 67.125 62.7523 66.4618 62.9745C65.9887 61.3055 65.3848 59.5643 64.6661 57.7868C65.4924 55.746 66.16 53.7563 66.6617 51.8651ZM44.7281 51.8744C45.2241 53.7466 45.8831 55.7167 46.6977 57.7367C45.9743 59.5246 45.3674 61.2757 44.8922 62.9541C44.2524 62.7377 43.636 62.5095 43.0738 62.2591C41.4845 61.5511 40.2273 60.7128 39.4125 59.8552C38.5977 58.9976 38.2441 58.1798 38.2441 57.3864C38.2441 56.5931 38.5977 55.7753 39.4125 54.9177C40.2273 54.0601 41.4845 53.2218 43.0738 52.5138C43.5883 52.2846 44.1483 52.0753 44.7281 51.8744ZM55.7087 53.0272C53.421 53.0272 51.5485 55.1627 51.5485 57.772C51.5485 60.3812 53.421 62.5167 55.7087 62.5167C57.9965 62.5167 59.8689 60.3812 59.8689 57.772C59.8689 55.1627 57.9965 53.0272 55.7087 53.0272ZM55.7087 54.9251C57.0971 54.9251 58.2048 56.1884 58.2048 57.772C58.2048 59.3555 57.0971 60.6188 55.7087 60.6188C54.3203 60.6188 53.2126 59.3555 53.2126 57.772C53.2126 56.1884 54.3203 54.9251 55.7087 54.9251ZM63.7122 60.0146C64.1485 61.1924 64.5278 62.345 64.8465 63.4564C63.8459 63.721 62.7804 63.944 61.6597 64.1199C61.9823 63.5328 62.3009 62.9348 62.612 62.3202C63.002 61.5499 63.3641 60.7806 63.7122 60.0146ZM47.6727 60.0164C48.0226 60.7872 48.387 61.5599 48.7794 62.3351C49.0866 62.9419 49.4003 63.5343 49.7187 64.1143C48.6013 63.9376 47.5391 63.7139 46.5417 63.449C46.8589 62.341 47.2384 61.1908 47.6727 60.0164ZM46.0623 65.2913C47.5681 65.6981 49.2003 66.0106 50.931 66.2143C52.0866 68.1205 53.2897 69.8324 54.5013 71.3297C53.9596 71.932 53.4227 72.4973 52.8973 72.9848C51.5447 74.2397 50.2625 75.0918 49.1938 75.4869C48.1251 75.8821 47.3276 75.8299 46.7334 75.4387C46.1393 75.0475 45.7018 74.2861 45.4675 73.033C45.2332 71.7799 45.2397 70.0886 45.5163 68.1251C45.6417 67.2344 45.8292 66.2806 46.0623 65.2913ZM65.3275 65.2987C65.5623 66.2935 65.7506 67.2518 65.8768 68.1474C66.1536 70.1126 66.1605 71.8059 65.9255 73.0626C65.6906 74.3194 65.2494 75.0865 64.6498 75.4813C64.0502 75.8762 63.2466 75.9295 62.1749 75.5332C61.1031 75.1369 59.8203 74.2816 58.4664 73.0256C57.9373 72.5346 57.3967 71.9666 56.8511 71.3593C58.0706 69.8564 59.2827 68.1352 60.4458 66.218C62.1809 66.0157 63.8175 65.705 65.3275 65.2987ZM53.1021 66.4089C53.9564 66.462 54.822 66.4978 55.7087 66.4978C56.5661 66.4978 57.4036 66.4641 58.2308 66.4144C57.3852 67.7156 56.5233 68.8985 55.6648 69.9637C54.8069 68.8962 53.9466 67.7112 53.1021 66.4089Z" fill="black"/>
</g>
<defs>
<filter id="filter0_d_1_1333" x="0.461578" y="0.893799" width="118.494" height="121.736" filterUnits="userSpaceOnUse" color-interpolation-filters="sRGB">
<feFlood flood-opacity="0" result="BackgroundImageFix"/>
<feColorMatrix in="SourceAlpha" type="matrix" values="0 0 0 0 0 0 0 0 0 0 0 0 0 0 0 0 0 0 127 0" result="hardAlpha"/>
<feOffset dx="4" dy="4"/>
<feGaussianBlur stdDeviation="10"/>
<feComposite in2="hardAlpha" operator="out"/>
<feColorMatrix type="matrix" values="0 0 0 0 0 0 0 0 0 0 0 0 0 0 0 0 0 0 0.15 0"/>
<feBlend mode="normal" in2="BackgroundImageFix" result="effect1_dropShadow_1_1333"/>
<feBlend mode="normal" in="SourceGraphic" in2="effect1_dropShadow_1_1333" result="shape"/>
</filter>
</defs>
</svg>
