<svg width="41" height="40" viewBox="0 0 41 40" fill="none" xmlns="http://www.w3.org/2000/svg">
<ellipse cx="20.2023" cy="20" rx="20.2023" ry="20" fill="#FFD600"/>
<path d="M22.4751 25.75V29.5" stroke="white" stroke-width="2" stroke-miterlimit="10" stroke-linecap="round" stroke-linejoin="round"/>
<path d="M21.566 16.15C20.7326 16.3 20.0508 16.15 19.7478 15.625C19.4447 15.1 19.672 14.35 20.2023 13.75C19.5205 13.075 18.7629 12.625 17.8538 12.4C17.6265 13.15 17.0962 13.75 16.4901 13.75C15.8841 13.75 15.3538 13.225 15.1265 12.4C14.1416 12.7 13.3083 13.15 12.7022 13.75C13.2325 14.35 13.4598 15.1 13.1568 15.625C12.8537 16.15 12.0961 16.3 11.3385 16.15C11.187 16.6 11.1113 17.05 11.1113 17.5C11.1113 17.95 11.187 18.4 11.2628 18.85C12.0961 18.7 12.778 18.85 13.081 19.375C13.384 19.9 13.1568 20.65 12.6264 21.25C13.3083 21.925 14.0659 22.375 14.975 22.6C15.2022 21.85 15.7325 21.25 16.3386 21.25C16.9447 21.25 17.475 21.775 17.7023 22.6C18.6114 22.375 19.4447 21.925 20.0508 21.25C19.5205 20.65 19.2932 19.9 19.5962 19.375C19.8993 18.85 20.6569 18.7 21.4145 18.85C21.566 18.4 21.566 17.95 21.566 17.5C21.566 17.05 21.6417 16.6 21.566 16.15Z" stroke="white" stroke-width="2" stroke-miterlimit="10" stroke-linecap="round" stroke-linejoin="round"/>
<path d="M14.8992 22.525V28" stroke="white" stroke-width="2" stroke-miterlimit="10" stroke-linecap="round" stroke-linejoin="round"/>
<path d="M21.7175 25.75H24.7478C25.5812 25.75 26.263 25.075 26.263 24.25V21.25H28.5358L26.263 16.75C26.263 13 23.2327 10 19.4447 10C17.172 10 15.1265 11.125 13.9143 12.85" stroke="white" stroke-width="2" stroke-miterlimit="10" stroke-linecap="round" stroke-linejoin="round"/>
</svg>
